HIERARCHY
ROOT Hips
{
	OFFSET	0.00	0.00	0.00
	CHANNELS 6 Xposition Yposition Zposition Zrotation Xrotation Yrotation
	JOINT LeftUpLeg
	{
		OFFSET	 0.126116	-0.065224	 0.014019
		CHANNELS 3 Zrotation Xrotation Yrotation
		JOINT LeftLeg
		{
			OFFSET	 0.000000	 0.569914	 0.000000
			CHANNELS 3 Zrotation Xrotation Yrotation
			JOINT LeftFoot
			{
				OFFSET	 0.000000	 0.544423	 0.000000
				CHANNELS 3 Zrotation Xrotation Yrotation
				JOINT LeftToeBase
				{
					OFFSET	 0.000000	 0.207117	 0.000000
					CHANNELS 3 Zrotation Xrotation Yrotation
					End Site
					{
						OFFSET	 0.000000	 0.207117	 0.000000
					}
				}
			}
		}
	}
	JOINT RightUpLeg
	{
		OFFSET	-0.124023	-0.065224	 0.008373
		CHANNELS 3 Zrotation Xrotation Yrotation
		JOINT RightLeg
		{
			OFFSET	 0.000000	 0.570047	 0.000000
			CHANNELS 3 Zrotation Xrotation Yrotation
			JOINT RightFoot
			{
				OFFSET	 0.000000	 0.544354	 0.000000
				CHANNELS 3 Zrotation Xrotation Yrotation
				JOINT RightToeBase
				{
					OFFSET	 0.000000	 0.207540	 0.000000
					CHANNELS 3 Zrotation Xrotation Yrotation
					End Site
					{
						OFFSET	 0.000000	 0.207540	 0.000000
					}
				}
			}
		}
	}
	JOINT Spine
	{
		OFFSET	 0.000184	 0.117403	 0.007763
		CHANNELS 3 Zrotation Xrotation Yrotation
		JOINT Spine1
		{
			OFFSET	 0.000000	 0.137269	 0.000000
			CHANNELS 3 Zrotation Xrotation Yrotation
			JOINT Spine2
			{
				OFFSET	 0.000000	 0.156879	 0.000000
				CHANNELS 3 Zrotation Xrotation Yrotation
				JOINT LeftShoulder
				{
					OFFSET	 0.080501	 0.160143	 0.002496
					CHANNELS 3 Zrotation Xrotation Yrotation
					JOINT LeftArm
					{
						OFFSET	 0.000000	 0.164363	 0.000000
						CHANNELS 3 Zrotation Xrotation Yrotation
						JOINT LeftForeArm
						{
							OFFSET	 0.000000	 0.364576	 0.000000
							CHANNELS 3 Zrotation Xrotation Yrotation
							JOINT LeftHand
							{
								OFFSET	 0.000000	 0.360812	 0.000000
								CHANNELS 3 Zrotation Xrotation Yrotation
								JOINT LeftHandIndex1
								{
									OFFSET	 0.000000	 0.086006	 0.000000
									CHANNELS 3 Zrotation Xrotation Yrotation
									JOINT LeftHandIndex2
									{
										OFFSET	 0.000000	 0.047237	 0.000000
										CHANNELS 3 Zrotation Xrotation Yrotation
										JOINT LeftHandIndex3
										{
											OFFSET	-0.004284	 0.038165	 0.000551
											CHANNELS 3 Zrotation Xrotation Yrotation
											End Site
											{
												OFFSET	-0.004284	 0.038165	 0.000551
											}
										}
									}
								}
							}
						}
					}
				}
				JOINT Neck
				{
					OFFSET	 0.000000	 0.176489	 0.000000
					CHANNELS 3 Zrotation Xrotation Yrotation
					JOINT Head
					{
						OFFSET	 0.000000	 0.077941	 0.001747
						CHANNELS 3 Zrotation Xrotation Yrotation
						End Site
						{
							OFFSET	 0.000000	 0.077941	 0.001747
						}
					}
				}
				JOINT RightShoulder
				{
					OFFSET	-0.080363	 0.159706	-0.000306
					CHANNELS 3 Zrotation Xrotation Yrotation
					JOINT RightArm
					{
						OFFSET	 0.000000	 0.164196	 0.000000
						CHANNELS 3 Zrotation Xrotation Yrotation
						JOINT RightForeArm
						{
							OFFSET	 0.000000	 0.365611	 0.000000
							CHANNELS 3 Zrotation Xrotation Yrotation
							JOINT RightHand
							{
								OFFSET	 0.000000	 0.360648	 0.000000
								CHANNELS 3 Zrotation Xrotation Yrotation
								JOINT RightHandIndex1
								{
									OFFSET	 0.000000	 0.069977	 0.000000
									CHANNELS 3 Zrotation Xrotation Yrotation
									JOINT RightHandIndex2
									{
										OFFSET	 0.000000	 0.052305	 0.000000
										CHANNELS 3 Zrotation Xrotation Yrotation
										JOINT RightHandIndex3
										{
											OFFSET	 0.009002	 0.042196	 0.000782
											CHANNELS 3 Zrotation Xrotation Yrotation
											End Site
											{
												OFFSET	 0.009002	 0.042196	 0.000782
											}
										}
									}
								}
							}
						}
					}
				}
			}
		}
	}
}
MOTION
Frames:    13
Frame Time: 0.03333334
 0.601204	 1.114066	-0.187193	 17.570010	-15.597920	-85.112370	 161.270100	 33.935470	-9.571657	 18.579260	-73.860990	 26.814580	 48.921120	 24.727660	-50.375730	-0.097964	 42.231020	-3.536631	 150.086400	 64.109010	 15.907310	-14.499160	-71.004920	-15.099630	-56.904370	 64.469550	 81.694210	-1.646070	 33.314030	 2.848121	 3.971384	 12.069840	-1.967125	-18.465030	-2.517574	 1.286857	 19.661750	 21.413300	 13.132180	-102.199600	 3.645321	 90.947060	-5.450042	 71.999770	 17.554380	 22.592810	-1.168392	 0.896859	-23.503030	-1.920420	 21.896810	-2.379070	 1.309497	-8.377408	-6.961333	 7.903733	 1.977192	 4.963066	-4.014628	-0.346955	 12.567930	 4.466441	 2.186332	-0.127355	 7.729768	-40.793460	 89.475110	 5.794972	-92.161910	-60.951390	 39.788950	 73.982850	-74.496510	-5.095515	 6.098383	 17.898460	 22.953500	-8.111147	-2.985305	 16.681680	-2.262198	 14.256970	 21.770490	-6.422325	-8.239867	-2.131385	 0.447455
 0.659487	 1.148226	-0.175295	 15.066650	-10.000130	-69.586050	 165.676100	 15.343410	-7.234997	 7.166756	-53.534160	 13.505740	 51.185330	 41.257280	-67.029900	 1.515531	 40.072740	-5.984479	 140.059200	 49.801180	 34.002290	-10.454160	-64.593360	-10.976760	-49.823160	 61.728680	 73.667840	-1.649298	 33.363530	 2.850877	 3.243760	 9.708538	-1.198422	-13.032450	-2.617386	 1.440638	 14.885970	 15.290240	 10.572720	-101.546900	 0.445031	 91.413420	-7.156558	 68.729660	 18.009750	 24.669270	-1.278204	 1.084825	-17.997100	-3.399158	 20.449590	-2.463303	 10.139470	-7.892972	-7.017762	 8.139241	 2.024329	 4.963066	-4.014628	-0.346955	 15.500890	 2.641299	 0.018075	-2.008153	 4.201073	-42.958160	 88.840430	 1.359848	-91.846170	-61.457760	 28.802770	 84.703670	-66.802930	-4.861590	 5.837157	 18.272480	 8.093962	-11.405130	-2.913002	 16.686610	-2.532400	 14.308800	 22.346530	-6.595531	-8.239867	-2.131385	 0.447455
 0.729956	 1.156757	-0.160934	 12.699370	-6.298864	-55.886450	 165.891300	 11.778760	 2.889879	 5.310677	-45.110460	 9.967588	 63.840440	 47.754860	-86.077570	 2.051732	 33.645250	-7.472637	 135.385900	 39.545740	 45.352330	-8.839417	-60.714020	-8.955407	-43.347100	 59.471790	 66.162890	-1.690171	 33.224600	 2.946142	 2.106238	 8.148001	-0.515686	-6.238782	 1.483656	 1.793717	 7.913206	 8.725581	 7.189891	-101.541100	-2.099002	 93.543970	 0.777430	 64.145790	 7.538248	 31.358240	-1.596227	 1.358504	-11.143690	-9.093212	 21.139220	-3.178571	 14.985220	-7.418672	-7.063489	 8.286036	 2.052712	 4.963066	-4.014628	-0.346955	 16.819190	-2.248170	-2.453657	-1.698379	-0.418714	-44.910050	 87.910930	-3.062862	-91.205010	-52.449150	 18.425460	 90.497670	-56.435940	-4.409208	 5.844582	 15.468410	-8.447147	-9.896027	-2.910902	 16.553690	-2.762486	 14.350720	 22.860850	-6.749217	-8.239867	-2.131385	 0.447455
 0.810891	 1.163589	-0.152856	 10.457730	-3.933271	-45.097210	 163.637400	 14.471370	 12.477340	 5.498004	-46.100350	 9.934141	 76.348460	 46.272480	-94.535540	 1.397950	 23.660700	-7.473987	 135.976500	 34.068530	 49.801540	-7.738364	-57.378760	-7.338568	-40.278560	 56.905120	 61.105740	-1.770117	 32.858150	 3.147777	 0.952979	 7.045765	 0.235057	-0.405255	 4.553335	 1.193162	 1.517013	 4.923143	 3.405437	-101.895200	-4.137256	 96.968410	 12.262060	 59.834240	-6.956004	 36.532470	-1.817951	 1.591575	-1.800214	-17.833260	 24.188400	-4.185042	 14.395870	-7.113428	-7.110002	 8.439531	 2.081317	 4.963066	-4.014628	-0.346955	 16.383010	-8.299240	-5.161458	 0.478494	-4.617433	-46.122220	 87.409910	-6.612116	-90.655300	-41.615630	 8.338218	 91.961500	-41.183480	-3.486834	 6.086273	 13.261160	-28.553030	-3.406201	-2.909004	 16.426370	-2.982823	 14.368920	 23.253810	-6.862242	-8.239867	-2.131385	 0.447455
 0.866168	 1.188699	-0.142283	 8.589224	-3.631866	-41.858970	 162.581300	 13.255580	 15.191270	 4.787477	-42.151760	 8.232984	 73.529450	 45.635040	-88.002590	 1.397984	 23.660680	-7.474005	 154.765500	 37.881000	 25.553230	-7.513830	-56.612340	-6.953474	-50.138940	 58.852100	 69.782260	-1.892114	 31.983520	 3.554004	 0.556209	 6.642521	 0.418527	-2.260805	 3.719833	 0.648249	 2.564137	 4.794479	 1.335541	-105.236900	-10.161470	 98.890420	 20.008890	 55.088900	-13.894670	 37.283540	-1.845098	 1.642497	-1.779336	-25.981090	 19.875470	-5.284619	 15.158470	-6.662107	-7.153011	 8.588614	 2.108757	 4.963066	-4.014628	-0.346955	 14.909810	-8.036735	-8.093516	 1.891130	-2.707108	-45.880800	 88.237700	-3.452149	-91.121680	-32.320170	 3.597151	 83.130910	-34.094130	-2.969274	 5.507037	 27.900420	-38.370500	 10.755520	-2.907207	 16.316300	-3.173326	 14.380730	 23.574010	-6.953390	-8.239867	-2.131385	 0.447455
 0.915142	 1.217092	-0.130315	 6.100813	-3.677922	-39.639110	 162.892500	 10.177110	 16.768550	 3.952219	-36.780280	 6.308167	 71.064730	 44.863890	-81.534850	 1.398012	 23.660650	-7.474021	 170.763900	 34.934330	 5.395314	-6.066483	-50.802940	-5.336984	-51.761780	 57.075890	 68.560710	-1.825143	 30.807700	 3.719019	 0.111728	 6.139574	 0.289483	-2.747773	 2.321959	-0.132888	 2.348890	 4.342688	-0.402292	-107.937300	-16.186780	 100.579800	 25.015030	 52.179800	-18.757550	 38.311150	-1.883780	 1.672897	-3.669689	-36.493310	 15.278760	-6.292985	 15.588520	-6.257639	-7.200199	 8.755742	 2.140199	 4.963066	-4.014628	-0.346955	 12.959860	-8.213330	-10.654600	 2.447849	-0.598317	-45.256180	 89.616820	-0.480490	-91.657260	-26.737160	 1.342227	 74.695400	-30.157290	-2.661632	 4.950985	 43.353320	-44.245540	 26.203160	-2.905344	 16.197170	-3.379462	 14.394170	 23.920490	-7.052329	-8.239867	-2.131385	 0.447455
 0.951986	 1.242561	-0.119159	 3.288195	-4.086144	-39.012960	 164.559800	 5.566550	 16.881120	 3.123288	-30.580260	 4.335929	 69.224460	 44.309930	-75.941160	 1.398028	 23.660640	-7.474030	 177.033400	 28.630940	-5.058477	-4.523966	-42.465000	-3.370481	-46.225470	 54.589970	 61.422980	-1.545492	 29.414610	 3.573663	-0.363770	 5.530222	 0.084970	-1.993258	 1.320326	-0.782789	 0.823632	 3.184594	-1.404206	-109.544800	-21.339030	 101.989800	 28.112250	 51.467360	-22.841670	 39.193600	-1.917780	 1.661953	-7.889974	-47.538930	 10.461060	-7.040597	 15.550710	-5.983507	-7.246221	 8.922810	 2.172379	 4.963066	-4.014628	-0.346955	 10.640440	-8.936718	-12.441110	 1.793490	 1.532170	-44.154570	 91.492140	 1.849520	-92.219090	-24.284340	-0.213596	 67.653920	-26.804690	-2.389646	 5.031908	 52.646820	-45.557820	 37.597790	-2.903576	 16.082850	-3.577268	 14.407700	 24.252940	-7.147566	-8.239867	-2.131385	 0.447455
 0.975149	 1.260771	-0.110594	 1.308475	-4.381645	-39.036890	 166.128000	 1.652105	 16.477500	 2.428385	-24.680970	 2.525633	 67.341550	 44.082640	-70.974790	 1.398040	 23.660630	-7.474037	 179.796700	 23.143690	-12.116930	-3.435185	-34.808640	-1.781354	-41.161250	 52.264480	 55.254380	-1.336632	 28.304280	 3.465493	-0.864049	 4.942196	-0.200708	-0.449666	 1.386403	-1.411195	-1.138716	 1.689707	-2.011530	-110.771200	-25.603190	 102.855300	 30.757210	 50.902920	-25.787320	 39.251020	-1.918975	 1.614508	-13.990120	-54.435770	 3.951184	-7.542773	 15.599990	-5.783829	-7.286005	 9.050447	 2.197570	 4.963066	-4.014628	-0.346955	 8.555699	-9.556918	-13.707490	 1.218510	 3.010158	-43.140960	 92.791260	 4.017053	-92.799820	-23.037140	-1.346936	 62.172530	-23.766100	-2.135721	 5.178232	 59.430290	-45.617770	 47.313870	-2.902002	 15.971670	-3.769563	 14.421480	 24.576190	-7.240471	-8.239867	-2.131385	 0.447455
 0.982755	 1.268080	-0.105084	 1.008986	-4.416658	-40.379420	 166.696000	-0.340060	 14.911340	 1.936382	-20.127340	 1.370026	 65.599320	 43.924190	-67.593890	 1.398039	 23.660620	-7.474037	 179.589400	 21.101680	-14.839220	-2.907195	-30.476390	-0.796985	-38.711540	 51.318050	 52.395390	-1.260194	 27.770470	 3.417331	-1.235668	 4.443666	-0.472781	 1.376265	 1.882106	-1.704031	-3.408054	 0.289301	-1.855615	-111.369400	-28.027680	 102.754100	 31.226220	 51.141400	-25.478340	 39.415990	-1.925077	 1.549274	-18.732010	-54.297150	-0.510861	-7.535498	 15.841570	-5.736786	-7.313235	 9.097220	 2.208227	 4.963066	-4.014628	-0.346955	 6.965345	-10.098520	-13.851600	 0.917179	 3.181146	-42.415480	 92.861350	 5.924770	-93.299350	-22.563590	-0.214988	 59.916930	-23.515590	-2.114538	 4.806183	 60.768680	-45.218790	 51.787280	-2.900315	 15.864680	-3.954651	 14.435300	 24.887190	-7.330123	-8.239867	-2.131385	 0.447455
 0.984135	 1.271750	-0.101831	 0.724712	-4.447711	-41.646370	 167.188700	-1.769874	 13.507610	 1.604121	-17.063090	 0.116502	 64.394050	 44.263550	-65.265840	 1.398039	 23.660610	-7.474038	 179.435900	 19.567030	-17.424690	-2.561875	-27.413130	 0.287235	-36.916470	 50.982440	 50.137180	-1.189055	 27.268030	 3.372950	-1.573377	 3.998615	-0.839488	 3.487429	 3.271329	-2.294698	-5.691902	-1.475302	-1.697655	-111.949800	-30.308130	 102.630000	 32.275920	 50.945150	-25.713720	 39.411670	-1.921959	 1.481987	-23.521100	-52.261090	-4.982432	-7.528831	 16.068930	-5.692491	-7.338872	 9.141234	 2.218278	 4.963066	-4.014628	-0.346955	 5.464952	-10.604410	-14.001360	 0.624481	 3.350909	-41.724620	 92.942900	 7.719403	-93.773440	-22.212060	 0.763590	 57.783310	-23.764210	-2.135581	 4.494123	 61.143180	-43.984410	 55.455280	-2.899055	 15.763990	-4.128748	 14.448830	 25.179860	-7.414779	-8.239867	-2.131385	 0.447455
 0.983693	 1.273633	-0.101393	 0.521986	-4.426663	-42.148110	 167.528700	-2.411762	 13.099520	 1.490786	-15.757640	-0.050529	 63.844090	 44.157620	-64.398490	 1.398029	 23.660610	-7.474034	 179.431400	 18.952600	-17.800340	-2.431302	-26.207120	 0.515175	-36.489010	 50.550200	 49.364040	-1.184102	 27.235860	 3.369633	-1.672013	 3.833938	-0.856830	 4.308586	 3.474477	-2.344242	-6.689049	-2.002357	-1.640955	-111.936200	-30.231620	 102.598900	 32.993670	 50.854810	-26.008700	 38.778220	-1.902545	 1.342602	-24.042930	-50.234120	-5.052822	-7.464931	 16.466760	-5.664595	-7.346895	 9.066153	 2.206151	 4.963066	-4.014628	-0.346955	 5.497201	-10.374430	-13.465520	 0.081251	 2.515658	-42.021320	 92.923160	 8.076570	-93.899030	-22.134260	 1.106220	 57.525210	-23.708100	-2.130949	 3.745636	 60.657020	-44.628620	 56.339080	-2.897378	 15.666400	-4.297592	 14.462410	 25.463450	-7.497010	-8.239867	-2.131385	 0.447455
 0.981333	 1.274299	-0.102123	 0.324570	-4.394612	-42.590570	 167.823400	-2.610209	 12.822380	 1.463612	-15.484550	-0.200382	 63.645480	 44.276260	-64.267620	 1.398019	 23.660610	-7.474029	 179.694600	 18.710930	-18.125770	-2.398072	-25.896310	 0.655369	-36.511520	 50.437090	 49.100360	-1.181996	 27.223840	 3.368089	-1.737513	 3.695246	-0.893390	 5.014586	 3.852145	-2.459121	-7.560662	-2.561760	-1.582895	-111.899900	-30.068470	 102.573900	 34.071590	 50.454400	-26.645340	 37.929990	-1.867364	 1.199996	-24.387210	-47.103260	-5.012717	-7.402715	 16.847250	-5.639402	-7.353767	 8.990985	 2.193888	 4.963066	-4.014628	-0.346955	 5.584560	-10.129060	-12.935940	-0.438386	 1.691207	-42.346700	 92.900880	 8.356595	-94.003430	-22.091640	 1.234186	 57.368710	-23.612990	-2.122752	 2.913306	 59.046990	-44.480300	 56.305310	-2.896047	 15.574790	-4.455984	 14.475580	 25.729580	-7.574425	-8.239867	-2.131385	 0.447455
 0.978811	 1.274673	-0.103364	 0.114028	-4.349889	-43.020840	 168.089900	-2.644318	 12.555270	 1.478442	-15.633400	-0.338963	 63.619100	 44.502490	-64.439720	 1.398010	 23.660610	-7.474024	-179.949300	 18.549630	-18.458440	-2.386929	-25.791980	 0.784575	-36.637570	 50.398820	 48.944320	-1.179953	 27.212190	 3.366591	-1.769996	 3.571095	-0.895343	 5.819335	 4.302570	-2.567956	-8.458300	-3.146620	-1.527942	-111.864600	-29.910120	 102.549500	 34.558480	 50.069270	-26.884590	 37.442280	-1.839053	 1.070845	-24.496660	-42.790060	-4.802076	-7.342374	 17.216590	-5.615313	-7.360451	 8.918023	 2.181980	 4.963066	-4.014628	-0.346955	 5.667086	-9.890141	-12.422660	-0.942502	 0.890751	-42.670170	 92.879750	 8.628430	-94.104740	-21.952410	 1.372231	 57.229020	-23.647950	-2.125674	 1.924000	 56.467210	-43.658310	 55.623730	-2.895006	 15.485880	-4.609655	 14.488790	 25.987890	-7.649802	-8.239867	-2.131385	 0.447455
